<svg width="241" height="57" viewBox="0 0 241 57" fill="none" xmlns="http://www.w3.org/2000/svg">
<path d="M131.753 46.3187L128.318 21.4818H135.306L137.462 45.2578L136.502 45.2073L139.987 21.4818H148.289L151.758 45.2073L150.798 45.2578L152.953 21.4818H159.941L156.506 46.3187H146.117L143.81 25.8935H144.483L142.16 46.3187H131.753Z" fill="#2FC18C"/>
<path d="M167.758 46.7228C166.478 46.7228 165.333 46.5207 164.323 46.1166C163.312 45.7012 162.515 45.1063 161.932 44.3317C161.348 43.5459 161.056 42.5917 161.056 41.4692C161.056 40.1445 161.432 39.0781 162.184 38.2698C162.948 37.4616 163.919 36.8498 165.097 36.4344C166.287 36.0191 167.516 35.7553 168.785 35.643C170.592 35.4746 171.81 35.3287 172.439 35.2052C173.068 35.0817 173.382 34.8628 173.382 34.5485C173.382 34.5373 173.382 34.5317 173.382 34.5317C173.382 34.1163 173.129 33.7627 172.624 33.4708C172.13 33.1678 171.468 33.0162 170.637 33.0162C169.739 33.0162 169.071 33.1846 168.633 33.5214C168.196 33.8469 167.977 34.324 167.977 34.9526H161.292C161.292 33.4484 161.713 32.1855 162.555 31.164C163.397 30.1424 164.525 29.3735 165.939 28.8571C167.365 28.3295 168.948 28.0657 170.688 28.0657C172.338 28.0657 173.881 28.3126 175.318 28.8066C176.766 29.3005 177.94 30.0582 178.838 31.0798C179.736 32.0901 180.185 33.3867 180.185 34.9695C180.185 35.2052 180.185 35.441 180.185 35.6767C180.185 35.9124 180.185 36.1482 180.185 36.3839V41.9238C180.185 42.4177 180.196 42.8948 180.218 43.3551C180.241 43.8153 180.308 44.2419 180.42 44.6348C180.544 45.0502 180.707 45.4094 180.909 45.7125C181.111 46.0043 181.274 46.2064 181.397 46.3187H174.763C174.662 46.2176 174.516 46.0324 174.325 45.763C174.134 45.4936 173.977 45.1849 173.853 44.8369C173.685 44.3317 173.562 43.8602 173.483 43.4224C173.416 42.9734 173.382 42.429 173.382 41.7891L174.864 42.8162C174.561 43.6357 174.044 44.3373 173.315 44.9211C172.596 45.5048 171.749 45.9538 170.772 46.2681C169.807 46.5712 168.802 46.7228 167.758 46.7228ZM169.778 41.907C170.362 41.907 170.935 41.7779 171.496 41.5197C172.068 41.2615 172.546 40.8349 172.927 40.2399C173.309 39.6338 173.5 38.8143 173.5 37.7815V37.1417L175.234 38.5392C174.493 38.7974 173.668 39.0163 172.759 39.196C171.85 39.3643 170.98 39.4934 170.149 39.5832C169.374 39.6618 168.796 39.7909 168.415 39.9705C168.044 40.1389 167.859 40.4139 167.859 40.7956C167.859 41.1773 168.027 41.4579 168.364 41.6375C168.701 41.8172 169.172 41.907 169.778 41.907Z" fill="#2FC18C"/>
<path d="M190.326 20V46.3187H183.641V20H190.326Z" fill="#2FC18C"/>
<path d="M200.718 20V46.3187H194.033V20H200.718Z" fill="#2FC18C"/>
<path d="M206.901 39.2296V35.1884H217.442L216.937 36.064C216.937 35.9742 216.937 35.8788 216.937 35.7777C216.937 35.6655 216.937 35.5701 216.937 35.4915C216.937 35.1098 216.825 34.7169 216.6 34.3128C216.387 33.8974 216.033 33.5494 215.539 33.2688C215.057 32.9881 214.406 32.8478 213.586 32.8478C212.789 32.8478 212.121 33.0162 211.582 33.353C211.043 33.6897 210.639 34.1893 210.37 34.8516C210.1 35.5027 209.966 36.2997 209.966 37.2427C209.966 38.2305 210.095 39.0725 210.353 39.7685C210.611 40.4645 211.021 40.9977 211.582 41.3681C212.144 41.7274 212.879 41.907 213.788 41.907C214.327 41.907 214.787 41.8677 215.169 41.7891C215.551 41.7105 215.854 41.6095 216.078 41.486C216.314 41.3625 216.488 41.2278 216.6 41.0819C216.724 40.9359 216.797 40.7956 216.819 40.6609H223.521C223.442 41.4467 223.156 42.2044 222.662 42.9341C222.179 43.6638 221.511 44.3205 220.658 44.9042C219.805 45.4767 218.778 45.9314 217.577 46.2681C216.376 46.5937 215.017 46.7565 213.502 46.7565C211.403 46.7565 209.584 46.3636 208.046 45.5778C206.508 44.7807 205.324 43.6806 204.493 42.2774C203.663 40.863 203.247 39.2409 203.247 37.4111C203.247 35.5364 203.674 33.8974 204.527 32.4942C205.38 31.091 206.576 30.0021 208.114 29.2275C209.663 28.453 211.459 28.0657 213.502 28.0657C215.612 28.0657 217.431 28.4642 218.958 29.2612C220.495 30.047 221.68 31.1696 222.51 32.6289C223.341 34.077 223.757 35.8002 223.757 37.7984C223.757 38.1351 223.751 38.4214 223.74 38.6571C223.728 38.8929 223.712 39.0837 223.689 39.2296H206.901Z" fill="#2FC18C"/>
<path d="M236.143 46.7565C235.368 46.7565 234.549 46.6947 233.684 46.5712C232.831 46.459 232.029 46.2176 231.277 45.8472C230.524 45.4767 229.913 44.9211 229.441 44.1802C228.97 43.428 228.734 42.4233 228.734 41.1661C228.734 40.9079 228.734 40.6497 228.734 40.3915C228.734 40.1333 228.734 39.8807 228.734 39.6338V33.4877H224.743V28.4361H224.827C225.703 28.4361 226.399 28.3968 226.915 28.3182C227.443 28.2397 227.836 28.0488 228.094 27.7457C228.352 27.4426 228.521 26.9655 228.599 26.3145C228.689 25.6634 228.734 24.7653 228.734 23.6203V22.5763H235.537V28.4361H240.47V33.4877H235.537V38.4214C235.537 38.5898 235.537 38.7582 235.537 38.9265C235.537 39.0837 235.537 39.2465 235.537 39.4149C235.537 40.0659 235.615 40.616 235.772 41.065C235.93 41.5141 236.351 41.7386 237.035 41.7386C237.439 41.7386 237.821 41.6993 238.18 41.6207C238.54 41.5421 238.809 41.4635 238.989 41.385V46.285C238.73 46.3972 238.354 46.5039 237.86 46.6049C237.378 46.7059 236.805 46.7565 236.143 46.7565Z" fill="#2FC18C"/>
<path d="M4.96761 16.8525C4.96761 10.6527 9.99352 5.62682 16.1933 5.62682H44.2576C50.4573 5.62682 55.4833 10.6527 55.4833 16.8525V44.9168C55.4833 51.1166 50.4574 56.1425 44.2576 56.1425H16.1933C9.99353 56.1425 4.96761 51.1166 4.96761 44.9168V16.8525Z" fill="#00D5E2"/>
<path d="M18.9997 16.8525L55.4833 33.6911V44.9168C55.4833 51.1165 50.4574 56.1425 44.2576 56.1425H37.2415L18.9997 16.8525Z" fill="#003BE5" fill-opacity="0.34"/>
<path d="M10.9586 26.2156L26.3262 10.848L50.7278 35.2496L35.3602 50.6172L10.9586 26.2156Z" fill="white"/>
<path d="M1.66614 53.8337C2.10624 54.2738 2.69642 54.4602 3.26595 54.3981C3.26595 54.3981 14.0139 54.4602 20.1231 48.5995C20.2008 48.5322 20.2732 48.4598 20.3456 48.3872C22.5615 46.1714 22.5563 42.5835 20.3456 40.3729C18.1349 38.1621 14.5471 38.157 12.3313 40.3729L1.66614 51.038C0.894733 51.8095 0.894733 53.0623 1.66614 53.8337Z" fill="white"/>
<path d="M11.5273 49.2955C11.6722 50.2735 11.0927 51.6861 9.94564 52.8935C9.59549 53.2557 9.23327 53.5697 8.85898 53.8112" fill="white"/>
<path d="M6.48036 52.483C6.38377 53.1833 6.0457 53.8232 5.51444 54.282L6.48036 52.483Z" fill="white"/>
<path d="M28.3432 16.4272C29.4409 15.3296 29.4409 13.5498 28.3432 12.4522C27.2455 11.3545 25.4658 11.3545 24.3681 12.4522C23.2704 13.5498 23.2704 15.3295 24.3681 16.4272C25.4658 17.5249 27.2455 17.5249 28.3432 16.4272Z" fill="#2FC18C"/>
<path d="M49.652 37.2072C50.7497 36.1095 50.7497 34.3298 49.652 33.2321C48.5543 32.1344 46.7746 32.1344 45.6769 33.2321C44.5792 34.3298 44.5792 36.1095 45.6769 37.2072C46.7746 38.3049 48.5543 38.3049 49.652 37.2072Z" fill="#2FC18C"/>
<path d="M16.1372 28.633C17.2349 27.5353 17.2349 25.7556 16.1372 24.6579C15.0395 23.5602 13.2598 23.5602 12.1622 24.6579C11.0645 25.7556 11.0645 27.5353 12.1622 28.633C13.2598 29.7307 15.0395 29.7307 16.1372 28.633Z" fill="#2FC18C"/>
<path d="M36.9777 49.4735C38.0754 48.3758 38.0754 46.5961 36.9777 45.4984C35.88 44.4007 34.1003 44.4007 33.0026 45.4984C31.9049 46.5961 31.9049 48.3758 33.0026 49.4735C34.1003 50.5712 35.88 50.5712 36.9777 49.4735Z" fill="#2FC18C"/>
<path d="M49.9704 34.6723L48.5447 36.0981L25.2123 12.7657L26.6381 11.34L49.9704 34.6723Z" fill="#2FC18C"/>
<path d="M35.7896 48.2843L34.3639 49.7101L11.0315 26.3777L12.4573 24.952L35.7896 48.2843Z" fill="#2FC18C"/>
<path d="M26.6503 10.7577L28.0927 12.2001L12.4733 27.8195L11.0309 26.3771L26.6503 10.7577Z" fill="#2FC18C"/>
<path d="M49.3885 33.4955L50.8309 34.9379L35.2115 50.5573L33.7691 49.1149L49.3885 33.4955Z" fill="#2FC18C"/>
<path d="M38.7109 38.4389C41.4183 35.7315 40.067 29.9907 35.6927 25.6165C31.3185 21.2422 25.5777 19.8909 22.8704 22.5983C20.163 25.3056 21.5143 31.0464 25.8886 35.4207C30.2628 39.7949 36.0036 41.1462 38.7109 38.4389Z" fill="#2FC18C"/>
<path d="M42.9827 27.4435L27.4435 42.9826C27.3876 43.0385 27.3262 43.0786 27.2592 43.1133C26.9861 43.2467 26.6346 43.1899 26.3981 42.9536L18.1566 34.7121C17.9202 34.4757 17.8634 34.1242 17.9969 33.8511C18.0316 33.7842 18.0717 33.7226 18.1276 33.6667L33.6666 18.1275C33.7225 18.0716 33.7841 18.0314 33.851 17.9967C34.1241 17.8634 34.4756 17.9202 34.712 18.1565L42.9536 26.398C43.19 26.6344 43.2468 26.9859 43.1133 27.259C43.0786 27.326 43.0386 27.3876 42.9827 27.4435Z" fill="#2FC18C"/>
<path fill-rule="evenodd" clip-rule="evenodd" d="M18.1276 33.6667C18.0717 33.7226 18.0316 33.7842 17.9969 33.8511C17.8634 34.1242 17.9202 34.4757 18.1566 34.7121L26.3981 42.9536C26.6346 43.1899 26.9861 43.2467 27.2592 43.1133C27.3262 43.0786 27.3876 43.0385 27.4435 42.9826L42.9827 27.4435C43.0386 27.3876 43.0786 27.326 43.1133 27.259C43.2468 26.9859 43.19 26.6344 42.9536 26.398L34.712 18.1565C34.4756 17.9202 34.1241 17.8634 33.851 17.9967C33.7841 18.0314 33.7225 18.0716 33.6666 18.1275L18.1276 33.6667ZM34.1748 20.3975L20.3976 34.1749L26.9353 40.7126L40.7127 26.9353L34.1748 20.3975Z" fill="#036B52"/>
<path d="M53.8337 1.66613C54.2738 2.10623 54.4602 2.69641 54.3981 3.26594C54.3981 3.26594 54.4602 14.0139 48.5995 20.1231C48.5323 20.2007 48.4597 20.2732 48.3872 20.3457C46.1714 22.5616 42.5835 22.5564 40.3729 20.3457C38.1621 18.135 38.157 14.5472 40.3729 12.3314L51.038 1.66625C51.8095 0.894718 53.0623 0.894718 53.8337 1.66613Z" fill="white"/>
<path d="M49.2953 11.5274C50.2733 11.6723 51.686 11.0928 52.8934 9.94572C53.2556 9.59557 53.5696 9.23335 53.811 8.85905" fill="white"/>
<path d="M52.4829 6.48044C53.1832 6.38385 53.8231 6.04578 54.2819 5.51452L52.4829 6.48044Z" fill="white"/>
<path fill-rule="evenodd" clip-rule="evenodd" d="M11.5622 39.6038C14.2034 36.9626 18.4798 36.969 21.1147 39.6038C23.7494 42.2385 23.7559 46.5151 21.1147 49.1563L21.1088 49.1622C21.0453 49.2257 20.9572 49.3141 20.8578 49.4018C17.5893 52.5271 13.15 54.0288 9.62485 54.7614C7.84463 55.1313 6.26311 55.312 5.12506 55.4005C4.55537 55.4448 4.09503 55.4661 3.77435 55.4763C3.61397 55.4814 3.48838 55.4838 3.40137 55.4848C3.36858 55.4852 3.34125 55.4854 3.3196 55.4856C2.45525 55.5614 1.56286 55.2685 0.897104 54.6028C-0.299068 53.4066 -0.298981 51.4652 0.897044 50.269L11.5622 39.6038ZM3.27224 53.3105L3.27534 53.3105L3.29373 53.3105C3.311 53.3104 3.33822 53.3103 3.37492 53.3098C3.44834 53.3089 3.55963 53.3069 3.70507 53.3022C3.99603 53.293 4.4231 53.2733 4.95649 53.2319C6.0246 53.1489 7.51188 52.9788 9.1823 52.6317C12.5518 51.9315 16.5312 50.5382 19.3702 47.8147L19.3901 47.7955L19.411 47.7774C19.4542 47.7401 19.4996 47.6954 19.576 47.6188C21.3664 45.8284 21.3632 42.9284 19.5766 41.1419C17.7899 39.3552 14.8908 39.3514 13.1003 41.1419L2.43524 51.8069C2.43522 51.807 2.43526 51.8069 2.43524 51.8069C2.08851 52.1538 2.08855 52.718 2.43518 53.0647C2.63308 53.2626 2.89309 53.3447 3.14791 53.3169L3.20989 53.3101L3.27224 53.3105Z" fill="#003BE5"/>
<path fill-rule="evenodd" clip-rule="evenodd" d="M4.81779 53.4889C5.24248 53.0641 5.9311 53.064 6.35587 53.4887L6.36834 53.5012C6.79311 53.9259 6.79318 54.6145 6.36849 55.0393C5.9438 55.464 5.25518 55.4641 4.83041 55.0394L4.81794 55.0269C4.39317 54.6023 4.39311 53.9136 4.81779 53.4889Z" fill="#003BE5"/>
<path fill-rule="evenodd" clip-rule="evenodd" d="M11.3679 48.2196C11.9621 48.1316 12.5152 48.5419 12.6032 49.1361C12.7149 49.8902 12.539 50.6986 12.2196 51.4392C11.894 52.1941 11.3874 52.955 10.7341 53.6426L10.7276 53.6494L10.7276 53.6494C10.3379 54.0525 9.91197 54.4261 9.44858 54.725C8.94385 55.0507 8.27071 54.9055 7.94508 54.4008C7.61945 53.896 7.76463 53.2229 8.26936 52.8973C8.55355 52.7139 8.85094 52.4608 9.16037 52.141C9.65247 51.6223 10.008 51.0745 10.2223 50.5777C10.4432 50.0656 10.4847 49.6787 10.4515 49.4548C10.3635 48.8607 10.7738 48.3076 11.3679 48.2196Z" fill="#003BE5"/>
<path fill-rule="evenodd" clip-rule="evenodd" d="M6.62897 51.4056C7.224 51.4876 7.63982 52.0365 7.55775 52.6316C7.42648 53.5833 6.96454 54.4667 6.22531 55.1051C5.77072 55.4977 5.08394 55.4475 4.69134 54.9929C4.29873 54.5383 4.34899 53.8515 4.80358 53.4589C5.12687 53.1797 5.34107 52.7832 5.40298 52.3344C5.48505 51.7393 6.03395 51.3235 6.62897 51.4056Z" fill="#003BE5"/>
<path fill-rule="evenodd" clip-rule="evenodd" d="M26.3972 12.7188C26.3504 12.672 26.2745 12.672 26.2277 12.7188L12.6536 26.2929C12.6069 26.3396 12.6069 26.4155 12.6536 26.4623L11.8846 27.2313L12.6536 26.4623L35.1267 48.9355C35.1734 48.9822 35.2493 48.9822 35.2961 48.9355L48.8702 35.3612C48.917 35.3145 48.917 35.2386 48.8702 35.1918L26.3972 12.7188ZM24.6897 11.1807C25.5859 10.2845 27.039 10.2845 27.9353 11.1807L50.4083 33.6537C51.3045 34.5499 51.3045 36.0031 50.4083 36.8993L36.8342 50.4735C35.938 51.3698 34.4848 51.3698 33.5886 50.4735L11.1156 28.0004C10.2193 27.1042 10.2193 25.651 11.1156 24.7548L24.6897 11.1807Z" fill="#003BE5"/>
<path fill-rule="evenodd" clip-rule="evenodd" d="M53.0647 2.43517C52.718 2.08853 52.1539 2.08844 51.807 2.43529L41.1419 13.1004C39.3514 14.8909 39.3552 17.79 41.1419 19.5767C42.9284 21.3632 45.8277 21.3672 47.6181 19.5768C47.6182 19.5768 47.6181 19.5768 47.6181 19.5768M53.3105 3.27177L53.3105 3.27533L53.3105 3.29371C53.3104 3.31099 53.3103 3.33821 53.3098 3.37491C53.3089 3.44832 53.3069 3.55961 53.3023 3.70505C53.293 3.99602 53.2733 4.42309 53.2319 4.95647C53.1489 6.02458 52.9788 7.51187 52.6317 9.18229C51.9315 12.5518 50.5382 16.5312 47.8147 19.3702L47.7955 19.3901L47.7775 19.411C47.7401 19.4542 47.696 19.4988 47.6181 19.5768M53.3105 3.27177L53.3101 3.20988L53.3169 3.1479C53.3447 2.89308 53.2626 2.63307 53.0647 2.43517M55.4856 3.31959C55.5614 2.45523 55.2685 1.56284 54.6028 0.897089C53.4066 -0.299093 51.4652 -0.299006 50.2689 0.89721L39.6038 11.5623C36.9626 14.2035 36.969 18.4799 39.6038 21.1148C42.2385 23.7495 46.5151 23.756 49.1563 21.1148L49.1682 21.1029C49.2299 21.0411 49.3163 20.9546 49.4018 20.8578C52.5271 17.5893 54.0289 13.15 54.7614 9.62484C55.1313 7.84462 55.3121 6.26309 55.4005 5.12505C55.4448 4.55536 55.4661 4.09501 55.4763 3.77434C55.4814 3.61396 55.4838 3.48837 55.4848 3.40136C55.4852 3.36856 55.4854 3.34124 55.4856 3.31959Z" fill="#003BE5"/>
<path fill-rule="evenodd" clip-rule="evenodd" d="M53.4887 4.81791C53.9134 4.39318 54.6021 4.39318 55.0268 4.81791L55.0393 4.83038C55.464 5.25511 55.464 5.94373 55.0393 6.36846C54.6145 6.79319 53.9259 6.79319 53.5012 6.36846L53.4887 6.35599C53.064 5.93126 53.064 5.24264 53.4887 4.81791Z" fill="#003BE5"/>
<path fill-rule="evenodd" clip-rule="evenodd" d="M54.4006 7.94516C54.9053 8.27079 55.0505 8.94394 54.7249 9.44867C54.4259 9.91206 54.0523 10.338 53.6492 10.7277L53.6424 10.7342L53.6424 10.7342C52.9548 11.3875 52.1939 11.8941 51.439 12.2197C50.6984 12.5391 49.89 12.715 49.1359 12.6033C48.5417 12.5152 48.1314 11.9622 48.2194 11.368C48.3074 10.7739 48.8605 10.3636 49.4547 10.4516C49.6785 10.4847 50.0654 10.4433 50.5775 10.2224C51.0743 10.0081 51.6221 9.65256 52.1408 9.16045C52.4606 8.85102 52.7137 8.55363 52.8971 8.26945C53.2227 7.76472 53.8958 7.61953 54.4006 7.94516Z" fill="#003BE5"/>
<path fill-rule="evenodd" clip-rule="evenodd" d="M54.9927 4.6914C55.4473 5.08401 55.4976 5.77079 55.105 6.22538C54.4665 6.9646 53.5831 7.42655 52.6314 7.55782C52.0364 7.6399 51.4875 7.22407 51.4054 6.62904C51.3234 6.03402 51.7392 5.48512 52.3342 5.40305C52.7831 5.34114 53.1795 5.12694 53.4587 4.80365C53.8513 4.34906 54.5381 4.2988 54.9927 4.6914Z" fill="#003BE5"/>
<path opacity="0.8" d="M76.5682 47V12.0909H101.114V19.7273H86.0455V25.7273H99.6137V33.3636H86.0455V47H76.5682ZM114.145 12.0909V47H104.736V12.0909H114.145Z" fill="#003BE5"/>
</svg>
